<?xml version="1.0" encoding="utf-8"?>
<!-- Generator: Adobe Illustrator 19.1.0, SVG Export Plug-In . SVG Version: 6.00 Build 0)  -->
<svg version="1.1" id="Layer_1" xmlns="http://www.w3.org/2000/svg" xmlns:xlink="http://www.w3.org/1999/xlink" x="0px" y="0px"
	 viewBox="0 0 179.7 122.4" style="enable-background:new 0 0 179.7 122.4;" xml:space="preserve">
<style type="text/css">
	.st0{fill:#317ABE;}
</style>
<g>
	<path d="M19.4,122l-4.8-12.2h-0.1H5.3V122H0V89.7h15.1c2.6,0,4.6,0.4,6,1.2c1.4,0.8,2.3,1.9,2.7,3.3c0.5,1.4,0.7,3.3,0.7,5.5
		c0,2.2-0.3,4.1-1,5.8c-0.6,1.7-1.9,2.9-3.8,3.5L25,122H19.4z M17.1,104.6c0.9-0.3,1.5-0.9,1.7-1.6c0.3-0.7,0.4-1.8,0.4-3.2
		c0-1.5-0.1-2.6-0.4-3.3S18,95.3,17.2,95c-0.8-0.3-2.2-0.5-4.1-0.5H5.3v10.6h7.6C14.8,105.1,16.2,104.9,17.1,104.6z"/>
	<path d="M52.4,111.8H36.7c0,1.9,0.1,3.3,0.4,4.1c0.3,0.8,0.9,1.4,1.9,1.7c1,0.3,2.7,0.5,5,0.5c2.1,0,4.5-0.2,7.4-0.5v4.1
		c-1,0.2-2.4,0.4-3.9,0.5c-1.6,0.1-3.1,0.2-4.7,0.2c-3.4,0-5.8-0.4-7.4-1.2c-1.6-0.8-2.6-2-3.1-3.6c-0.5-1.7-0.7-4.2-0.7-7.5
		c0-3.2,0.2-5.6,0.7-7.3c0.5-1.7,1.5-3,3-3.8c1.5-0.8,3.9-1.3,7.1-1.3c3.1,0,5.3,0.4,6.7,1.3c1.4,0.8,2.3,2.1,2.6,3.7
		c0.4,1.6,0.5,4.1,0.5,7.5V111.8z M38.7,102.5c-0.8,0.3-1.3,0.9-1.5,1.7c-0.3,0.8-0.4,2.1-0.4,3.9h10.9v-0.1c0-1.8-0.2-3.1-0.5-3.9
		c-0.3-0.8-0.8-1.4-1.5-1.7s-1.8-0.4-3.3-0.4C40.7,102,39.4,102.2,38.7,102.5z"/>
	<path d="M60.1,92.2v-5.1h5.2v5.1H60.1z M60.2,122v-24h5v24H60.2z"/>
	<path d="M89.5,109.1c0-2.2-0.1-3.7-0.3-4.6c-0.2-0.9-0.7-1.5-1.3-1.7c-0.7-0.3-1.8-0.4-3.4-0.4c-1.6,0-2.8,0.3-3.6,0.8
		c-0.8,0.5-1.3,1.2-1.6,2.2c-0.2,1-0.4,2.4-0.4,4.3V122h-5v-24h4.6l0.1,3.1H79c0.6-1.2,1.4-2.1,2.7-2.7c1.2-0.6,2.9-0.9,5-0.9
		c2.2,0,3.9,0.3,5,1s1.9,1.7,2.3,3c0.4,1.3,0.6,3.1,0.6,5.3v15h-5V109.1z"/>
	<path class="st0" d="M105.3,121.3c-1.2-0.7-2-2-2.6-3.8c-0.5-1.8-0.8-4.3-0.8-7.4c0-3.2,0.3-5.7,0.8-7.5c0.5-1.8,1.4-3.1,2.5-3.8
		s2.7-1.1,4.7-1.1c1.7,0,3.1,0.2,4.3,0.6c1.1,0.4,2.1,1.2,2.7,2.4h0.3V87.1h6.3V122h-5.8l-0.2-3h-0.4c-0.7,1.3-1.6,2.1-2.8,2.6
		c-1.2,0.5-2.6,0.7-4.2,0.7C108.1,122.4,106.5,122,105.3,121.3z M115.4,116.4c0.6-0.3,1-0.8,1.4-1.4c0.2-0.5,0.4-1.2,0.4-2
		c0.1-0.8,0.1-1.8,0.1-3s0-2.2-0.1-2.9c-0.1-0.8-0.2-1.4-0.4-1.9c-0.3-0.7-0.7-1.2-1.3-1.5c-0.6-0.3-1.5-0.4-2.6-0.4
		c-1.5,0-2.5,0.1-3.1,0.4c-0.6,0.3-1,0.9-1.2,1.7c-0.2,0.9-0.3,2.4-0.3,4.6s0.1,3.7,0.3,4.6c0.2,0.9,0.6,1.5,1.2,1.8
		s1.7,0.4,3.1,0.4C114,116.9,114.8,116.7,115.4,116.4z"/>
	<path class="st0" d="M151.9,111.9h-14.9c0,1.7,0.1,2.9,0.4,3.6c0.3,0.7,0.8,1.2,1.7,1.4c0.9,0.2,2.4,0.4,4.7,0.4
		c1.8,0,4.3-0.1,7.3-0.4v4.8c-1,0.2-2.3,0.4-3.9,0.5c-1.6,0.1-3.2,0.2-4.8,0.2c-3.5,0-6-0.4-7.7-1.2c-1.6-0.8-2.7-2-3.1-3.7
		c-0.5-1.7-0.7-4.2-0.7-7.5c0-3.2,0.2-5.7,0.7-7.4c0.5-1.7,1.5-2.9,3.1-3.8c1.6-0.8,4-1.3,7.2-1.3c3.2,0,5.5,0.4,7,1.2
		c1.4,0.8,2.3,2.1,2.7,3.7c0.4,1.6,0.5,4.1,0.5,7.5V111.9z M138.5,103.1c-0.6,0.3-1,0.8-1.2,1.5s-0.3,1.9-0.4,3.5h9
		c0-1.6-0.1-2.8-0.4-3.6c-0.3-0.8-0.7-1.2-1.3-1.5c-0.6-0.2-1.5-0.4-2.7-0.4C140.2,102.7,139.1,102.8,138.5,103.1z"/>
	<path class="st0" d="M163.7,122l-7.7-24h6.4l5.3,18h0.5l5.2-18h6.3l-7.7,24H163.7z"/>
</g>
<path d="M132.6,61.9V0H41.8v61.3L19.5,79.1l135.1-0.2L132.6,61.9z M44.8,74.2l1.5-3l80.9,0l1.5,3L44.8,74.2z M48.4,67.3l1.4-2.9
	h73.9l1.5,2.9L48.4,67.3z M127.5,57.3H46.9V4.9h80.6V57.3z"/>
<g id="code_not_rounded_1_">
	<g>
		<path class="st0" d="M114.5,43.4c-0.2-0.2-0.4-0.3-0.7-0.3h-30c-0.3,0-0.5,0.1-0.7,0.3c-0.2,0.2-0.3,0.5-0.3,0.8v2.2
			c0,0.3,0.1,0.6,0.3,0.8c0.2,0.2,0.4,0.3,0.7,0.3h30c0.3,0,0.5-0.1,0.7-0.3c0.2-0.2,0.3-0.5,0.3-0.8v-2.2
			C114.7,43.9,114.6,43.6,114.5,43.4z"/>
		<path class="st0" d="M65,13.1c-0.2-0.2-0.5-0.3-0.8-0.3c-0.3,0-0.6,0.1-0.8,0.3l-1.7,1.7c-0.2,0.2-0.3,0.5-0.3,0.8
			c0,0.3,0.1,0.6,0.3,0.8l13.5,13.5L61.7,43.4c-0.2,0.2-0.3,0.5-0.3,0.8c0,0.3,0.1,0.6,0.3,0.8l1.7,1.7c0.2,0.2,0.5,0.3,0.8,0.3
			c0.3,0,0.6-0.1,0.8-0.3l16-16c0.2-0.2,0.3-0.5,0.3-0.8c0-0.3-0.1-0.6-0.3-0.8L65,13.1z"/>
	</g>
</g>
</svg>
